<svg xmlns="http://www.w3.org/2000/svg" width="24" height="24" viewBox="0 0 24 24"><g transform="translate(0 -1028.362)"><circle cx="12" cy="1040.362" r="12" fill="#50b748"/><path fill="#10a711" style="line-height:normal;text-indent:0;text-align:start;text-decoration-line:none;text-transform:none;block-progression:tb" d="M 14.525391 23.716797 A 12 12 0 0 0 15.210938 23.5625 A 12 12 0 0 0 16.347656 23.183594 A 12 12 0 0 0 17.443359 22.695312 A 12 12 0 0 0 18.484375 22.097656 A 12 12 0 0 0 19.458984 21.400391 A 12 12 0 0 0 20.361328 20.607422 A 12 12 0 0 0 21.177734 19.730469 A 12 12 0 0 0 21.904297 18.775391 A 12 12 0 0 0 22.53125 17.753906 A 12 12 0 0 0 23.052734 16.673828 A 12 12 0 0 0 23.464844 15.546875 A 12 12 0 0 0 23.724609 14.53125 L 16.595703 7.4023438 C 15.324432 6.1310438 13.664317 5.4960938 12.001953 5.4960938 C 10.339504 5.4960938 8.6755933 6.1309438 7.4042969 7.4023438 C 4.8617039 9.9449434 4.8617039 14.053103 7.4042969 16.595703 L 14.525391 23.716797 z " color="#000" font-family="sans-serif" font-weight="400" transform="translate(0 1028.362)"/><path fill="#fff" d="m 8.5039062,2 c 1.6624488,0 3.3244068,0.63495 4.5957028,1.90625 2.542593,2.5426 2.542593,6.650759 0,9.193359 -2.542593,2.5426 -6.6507656,2.5426 -9.193359,0 -2.5425933,-2.5426 -2.5425933,-6.650759 0,-9.193359 C 5.1775467,2.63495 6.8414575,2 8.5039062,2 Z m 2.9609378,4.5019531 c -0.0947,0.00868 -0.186702,0.045065 -0.261719,0.1035157 L 7.5507812,9.3457031 5.8574219,7.6523438 C 5.4900556,7.2697226 4.7677695,7.9920087 5.1503906,8.359375 l 2,2 c 0.1681712,0.167883 0.4618974,0.188989 0.6523438,0.04687 l 3.9999996,-3 c 0.33666,-0.2450367 0.129241,-0.8983365 -0.287109,-0.9042969 -0.01691,-8.599e-4 -0.03387,-8.599e-4 -0.05078,0 z" color="#000" font-family="sans-serif" font-weight="400" overflow="visible" transform="translate(3.497 1031.859)" style="line-height:normal;text-indent:0;text-align:start;text-decoration-line:none;text-transform:none;block-progression:tb"/></g></svg>