<?xml version="1.0" standalone="no"?>
<!DOCTYPE svg PUBLIC "-//W3C//DTD SVG 20010904//EN"
 "http://www.w3.org/TR/2001/REC-SVG-20010904/DTD/svg10.dtd">
<svg version="1.0" xmlns="http://www.w3.org/2000/svg"
 width="823.000000pt" height="823.000000pt" viewBox="0 0 823.000000 823.000000"
 preserveAspectRatio="xMidYMid meet">
<metadata>
Created by potrace 1.14, written by Peter Selinger 2001-2017
</metadata>
<g transform="translate(0.000000,823.000000) scale(0.100000,-0.100000)"
fill="#000000" stroke="none">
<path d="M3878 8225 c-2 -1 -47 -5 -100 -9 -53 -3 -103 -8 -110 -10 -7 -3 -40
-7 -73 -10 -33 -4 -71 -8 -85 -11 -14 -2 -54 -9 -90 -15 -100 -17 -299 -59
-360 -76 -30 -8 -63 -17 -72 -19 -10 -2 -85 -26 -167 -54 -233 -78 -424 -163
-711 -317 -28 -15 -218 -139 -301 -196 -234 -160 -609 -508 -814 -753 -27 -33
-52 -62 -55 -65 -3 -3 -30 -36 -60 -75 -101 -127 -177 -237 -297 -430 -107
-172 -248 -482 -334 -735 -65 -190 -132 -475 -165 -699 -4 -25 -8 -54 -10 -63
-33 -185 -39 -875 -10 -1058 3 -14 7 -49 10 -79 4 -30 9 -64 11 -75 2 -12 7
-37 10 -56 43 -296 154 -687 267 -940 91 -204 212 -428 310 -572 21 -31 38
-61 38 -67 0 -5 3 -11 8 -13 4 -1 30 -34 57 -73 27 -38 55 -77 62 -85 7 -8 35
-44 63 -80 108 -136 206 -245 365 -404 542 -540 1184 -904 1885 -1070 114 -26
167 -38 190 -42 8 -1 62 -9 120 -18 149 -24 150 -24 200 -30 129 -16 250 -21
495 -21 294 0 437 9 625 40 14 2 70 11 124 20 55 9 102 18 105 20 3 1 22 6 41
9 28 4 140 33 280 70 207 56 511 186 765 326 231 127 524 334 715 506 85 75
309 302 365 368 28 32 55 64 60 70 19 20 112 141 172 221 238 322 431 690 552
1054 38 113 106 358 118 420 2 14 9 46 14 71 14 62 16 72 24 116 10 67 15 98
20 124 2 14 7 57 11 95 3 39 8 79 10 90 25 129 25 800 -1 980 -2 17 -6 53 -9
80 -14 126 -40 279 -77 454 -123 579 -381 1135 -738 1586 -166 210 -439 488
-616 628 -11 9 -45 35 -75 59 -249 198 -568 386 -850 502 -36 15 -78 33 -95
41 -16 7 -99 36 -182 64 -217 73 -493 137 -713 166 -25 3 -52 8 -60 10 -8 2
-51 7 -95 10 -44 4 -93 9 -110 12 -29 4 -652 12 -657 8z"/>
</g>
</svg>
